<mxfile host="app.diagrams.net" agent="Mozilla/5.0 (Windows NT 10.0; Win64; x64) AppleWebKit/537.36 (KHTML, like Gecko) Chrome/140.0.0.0 Safari/537.36" version="28.2.8">
  <diagram name="第 1 页" id="Ui1WhRl5NgR21Lghv9s0">
    <mxGraphModel dx="1426" dy="743" grid="1" gridSize="10" guides="1" tooltips="1" connect="1" arrows="1" fold="1" page="1" pageScale="1" pageWidth="827" pageHeight="1169" math="0" shadow="0">
      <root>
        <mxCell id="0" />
        <mxCell id="1" parent="0" />
        <mxCell id="wBnylKK0hW2aTVee2iu0-1" value="&lt;span style=&quot;&quot;&gt;«Boundary»&lt;/span&gt;&lt;br style=&quot;&quot;&gt;&lt;b&gt;&lt;font style=&quot;font-size: 14px;&quot;&gt;EmuCompiler&lt;/font&gt;&lt;/b&gt;" style="rounded=1;whiteSpace=wrap;html=1;verticalAlign=top;arcSize=9;fillColor=#f9f7ed;strokeColor=#36393d;" vertex="1" parent="1">
          <mxGeometry x="590" y="460" width="680" height="470" as="geometry" />
        </mxCell>
        <mxCell id="wBnylKK0hW2aTVee2iu0-2" value="&lt;b&gt;逻辑验证&lt;/b&gt;" style="shape=umlActor;verticalLabelPosition=bottom;verticalAlign=top;html=1;fontSize=14;fontColor=#000000;fillColor=#E6D0DE;gradientColor=#FFFFFF;gradientDirection=east;strokeWidth=2;" vertex="1" parent="1">
          <mxGeometry x="655" y="355" width="40" height="70" as="geometry" />
        </mxCell>
        <mxCell id="wBnylKK0hW2aTVee2iu0-3" value="&lt;font style=&quot;font-size: 12px;&quot;&gt;«Interface»&lt;/font&gt;&lt;br style=&quot;font-size: 14px;&quot;&gt;&lt;b&gt;RTL Code&lt;/b&gt;" style="html=1;dropTarget=0;fontSize=14;fillColor=#FFCCFF;strokeColor=#36393d;gradientColor=#FFFFFF;gradientDirection=east;" vertex="1" parent="1">
          <mxGeometry x="620" y="510" width="110" height="50" as="geometry" />
        </mxCell>
        <mxCell id="wBnylKK0hW2aTVee2iu0-4" value="" style="shape=module;jettyWidth=8;jettyHeight=4;fontSize=14;fillColor=#ffcccc;strokeColor=#36393d;gradientColor=#FFFFFF;gradientDirection=east;" vertex="1" parent="wBnylKK0hW2aTVee2iu0-3">
          <mxGeometry x="1" width="20" height="20" relative="1" as="geometry">
            <mxPoint x="-27" y="7" as="offset" />
          </mxGeometry>
        </mxCell>
        <mxCell id="wBnylKK0hW2aTVee2iu0-5" value="&lt;font style=&quot;font-size: 12px;&quot;&gt;«SubSystem»&lt;/font&gt;&lt;br style=&quot;font-size: 14px;&quot;&gt;&lt;b&gt;逻辑综合&lt;/b&gt;" style="html=1;dropTarget=0;fontSize=14;fillColor=#ffcccc;strokeColor=#36393d;gradientColor=#FFFFFF;gradientDirection=east;" vertex="1" parent="1">
          <mxGeometry x="600" y="669" width="150" height="80" as="geometry" />
        </mxCell>
        <mxCell id="wBnylKK0hW2aTVee2iu0-6" value="" style="shape=module;jettyWidth=8;jettyHeight=4;fontSize=14;fillColor=#ffcccc;strokeColor=#36393d;gradientColor=#FFFFFF;gradientDirection=east;" vertex="1" parent="wBnylKK0hW2aTVee2iu0-5">
          <mxGeometry x="1" width="20" height="20" relative="1" as="geometry">
            <mxPoint x="-27" y="7" as="offset" />
          </mxGeometry>
        </mxCell>
        <mxCell id="wBnylKK0hW2aTVee2iu0-7" value="&lt;font style=&quot;font-size: 12px;&quot;&gt;«Interface»&lt;/font&gt;&lt;br style=&quot;font-size: 14px;&quot;&gt;&lt;b&gt;信号映射表&lt;/b&gt;" style="html=1;dropTarget=0;fontSize=14;fillColor=#FFCCFF;strokeColor=#36393d;gradientColor=#FFFFFF;gradientDirection=east;" vertex="1" parent="1">
          <mxGeometry x="990" y="855" width="110" height="50" as="geometry" />
        </mxCell>
        <mxCell id="wBnylKK0hW2aTVee2iu0-8" value="" style="shape=module;jettyWidth=8;jettyHeight=4;fontSize=14;fillColor=#ffcccc;strokeColor=#36393d;gradientColor=#FFFFFF;gradientDirection=east;" vertex="1" parent="wBnylKK0hW2aTVee2iu0-7">
          <mxGeometry x="1" width="20" height="20" relative="1" as="geometry">
            <mxPoint x="-27" y="7" as="offset" />
          </mxGeometry>
        </mxCell>
        <mxCell id="wBnylKK0hW2aTVee2iu0-9" value="&lt;font style=&quot;font-size: 12px;&quot;&gt;«Interface»&lt;/font&gt;&lt;br style=&quot;font-size: 14px;&quot;&gt;&lt;b&gt;波形数据&lt;/b&gt;" style="html=1;dropTarget=0;fontSize=14;fillColor=#FFCCFF;strokeColor=#36393d;gradientColor=#FFFFFF;gradientDirection=east;" vertex="1" parent="1">
          <mxGeometry x="1110" y="855" width="110" height="50" as="geometry" />
        </mxCell>
        <mxCell id="wBnylKK0hW2aTVee2iu0-10" value="" style="shape=module;jettyWidth=8;jettyHeight=4;fontSize=14;fillColor=#ffcccc;strokeColor=#36393d;gradientColor=#FFFFFF;gradientDirection=east;" vertex="1" parent="wBnylKK0hW2aTVee2iu0-9">
          <mxGeometry x="1" width="20" height="20" relative="1" as="geometry">
            <mxPoint x="-27" y="7" as="offset" />
          </mxGeometry>
        </mxCell>
        <mxCell id="wBnylKK0hW2aTVee2iu0-11" value="&lt;font style=&quot;font-size: 12px;&quot;&gt;«SubSystem»&lt;/font&gt;&lt;br style=&quot;font-size: 14px;&quot;&gt;&lt;b&gt;波形恢复&lt;/b&gt;" style="html=1;dropTarget=0;fontSize=14;fillColor=#ffcccc;strokeColor=#36393d;gradientColor=#FFFFFF;gradientDirection=east;" vertex="1" parent="1">
          <mxGeometry x="1090" y="669" width="150" height="80" as="geometry" />
        </mxCell>
        <mxCell id="wBnylKK0hW2aTVee2iu0-12" value="" style="shape=module;jettyWidth=8;jettyHeight=4;fontSize=14;fillColor=#ffcccc;strokeColor=#36393d;gradientColor=#FFFFFF;gradientDirection=east;" vertex="1" parent="wBnylKK0hW2aTVee2iu0-11">
          <mxGeometry x="1" width="20" height="20" relative="1" as="geometry">
            <mxPoint x="-27" y="7" as="offset" />
          </mxGeometry>
        </mxCell>
        <mxCell id="wBnylKK0hW2aTVee2iu0-13" value="&lt;font style=&quot;font-size: 12px;&quot;&gt;«Interface»&lt;/font&gt;&lt;br style=&quot;font-size: 14px;&quot;&gt;&lt;b&gt;波形文件&lt;/b&gt;" style="html=1;dropTarget=0;fontSize=14;fillColor=#FFCCFF;strokeColor=#36393d;gradientColor=#FFFFFF;gradientDirection=east;" vertex="1" parent="1">
          <mxGeometry x="1110" y="510" width="110" height="50" as="geometry" />
        </mxCell>
        <mxCell id="wBnylKK0hW2aTVee2iu0-14" value="" style="shape=module;jettyWidth=8;jettyHeight=4;fontSize=14;fillColor=#ffcccc;strokeColor=#36393d;gradientColor=#FFFFFF;gradientDirection=east;" vertex="1" parent="wBnylKK0hW2aTVee2iu0-13">
          <mxGeometry x="1" width="20" height="20" relative="1" as="geometry">
            <mxPoint x="-27" y="7" as="offset" />
          </mxGeometry>
        </mxCell>
        <mxCell id="wBnylKK0hW2aTVee2iu0-15" value="&lt;font style=&quot;font-size: 12px;&quot;&gt;«Interface»&lt;/font&gt;&lt;br style=&quot;font-size: 14px;&quot;&gt;&lt;b&gt;指令bin&lt;/b&gt;" style="html=1;dropTarget=0;fontSize=14;fillColor=#FFCCFF;strokeColor=#36393d;gradientColor=#FFFFFF;gradientDirection=east;" vertex="1" parent="1">
          <mxGeometry x="740" y="855" width="110" height="50" as="geometry" />
        </mxCell>
        <mxCell id="wBnylKK0hW2aTVee2iu0-16" value="" style="shape=module;jettyWidth=8;jettyHeight=4;fontSize=14;fillColor=#ffcccc;strokeColor=#36393d;gradientColor=#FFFFFF;gradientDirection=east;" vertex="1" parent="wBnylKK0hW2aTVee2iu0-15">
          <mxGeometry x="1" width="20" height="20" relative="1" as="geometry">
            <mxPoint x="-27" y="7" as="offset" />
          </mxGeometry>
        </mxCell>
        <mxCell id="wBnylKK0hW2aTVee2iu0-17" value="" style="group" vertex="1" connectable="0" parent="1">
          <mxGeometry x="780" y="624" width="275" height="170" as="geometry" />
        </mxCell>
        <mxCell id="wBnylKK0hW2aTVee2iu0-18" value="&lt;font style=&quot;font-size: 12px;&quot;&gt;«SubSystem»&lt;/font&gt;&lt;br style=&quot;font-size: 14px;&quot;&gt;&lt;b&gt;调度编译&lt;/b&gt;" style="html=1;dropTarget=0;fontSize=14;fillColor=#ffcccc;strokeColor=#36393d;gradientColor=#FFFFFF;gradientDirection=east;verticalAlign=top;" vertex="1" parent="wBnylKK0hW2aTVee2iu0-17">
          <mxGeometry width="275" height="170" as="geometry" />
        </mxCell>
        <mxCell id="wBnylKK0hW2aTVee2iu0-19" value="" style="shape=module;jettyWidth=8;jettyHeight=4;fontSize=14;fillColor=#ffcccc;strokeColor=#36393d;gradientColor=#FFFFFF;gradientDirection=east;" vertex="1" parent="wBnylKK0hW2aTVee2iu0-18">
          <mxGeometry x="1" width="20" height="20" relative="1" as="geometry">
            <mxPoint x="-27" y="7" as="offset" />
          </mxGeometry>
        </mxCell>
        <mxCell id="wBnylKK0hW2aTVee2iu0-20" value="&lt;font style=&quot;font-size: 12px;&quot;&gt;«Module»&lt;/font&gt;&lt;br style=&quot;font-size: 14px;&quot;&gt;&lt;b&gt;调度部署&lt;/b&gt;" style="html=1;dropTarget=0;fontSize=14;fillColor=#E6D0DE;strokeColor=#36393d;gradientColor=#FFFFFF;gradientDirection=east;" vertex="1" parent="wBnylKK0hW2aTVee2iu0-17">
          <mxGeometry x="20" y="110" width="110" height="50" as="geometry" />
        </mxCell>
        <mxCell id="wBnylKK0hW2aTVee2iu0-21" value="" style="shape=module;jettyWidth=8;jettyHeight=4;fontSize=14;fillColor=#E6D0DE;strokeColor=#36393d;gradientColor=#FFFFFF;gradientDirection=east;" vertex="1" parent="wBnylKK0hW2aTVee2iu0-20">
          <mxGeometry x="1" width="20" height="20" relative="1" as="geometry">
            <mxPoint x="-27" y="7" as="offset" />
          </mxGeometry>
        </mxCell>
        <mxCell id="wBnylKK0hW2aTVee2iu0-22" value="&lt;font style=&quot;font-size: 12px;&quot;&gt;«Module»&lt;/font&gt;&lt;br style=&quot;font-size: 14px;&quot;&gt;&lt;b&gt;指令生成&lt;/b&gt;" style="html=1;dropTarget=0;fontSize=14;fillColor=#E6D0DE;strokeColor=#36393d;gradientColor=#FFFFFF;gradientDirection=east;" vertex="1" parent="wBnylKK0hW2aTVee2iu0-17">
          <mxGeometry x="150" y="110" width="110" height="50" as="geometry" />
        </mxCell>
        <mxCell id="wBnylKK0hW2aTVee2iu0-23" value="" style="shape=module;jettyWidth=8;jettyHeight=4;fontSize=14;fillColor=#E6D0DE;strokeColor=#36393d;gradientColor=#FFFFFF;gradientDirection=east;" vertex="1" parent="wBnylKK0hW2aTVee2iu0-22">
          <mxGeometry x="1" width="20" height="20" relative="1" as="geometry">
            <mxPoint x="-27" y="7" as="offset" />
          </mxGeometry>
        </mxCell>
        <mxCell id="wBnylKK0hW2aTVee2iu0-24" value="&lt;font style=&quot;font-size: 12px;&quot;&gt;«Module»&lt;/font&gt;&lt;br style=&quot;font-size: 14px;&quot;&gt;&lt;b&gt;网表解析&lt;/b&gt;" style="html=1;dropTarget=0;fontSize=14;fillColor=#E6D0DE;strokeColor=#36393d;gradientColor=#FFFFFF;gradientDirection=east;" vertex="1" parent="wBnylKK0hW2aTVee2iu0-17">
          <mxGeometry x="20" y="50" width="110" height="50" as="geometry" />
        </mxCell>
        <mxCell id="wBnylKK0hW2aTVee2iu0-25" value="" style="shape=module;jettyWidth=8;jettyHeight=4;fontSize=14;fillColor=#E6D0DE;strokeColor=#36393d;gradientColor=#FFFFFF;gradientDirection=east;" vertex="1" parent="wBnylKK0hW2aTVee2iu0-24">
          <mxGeometry x="1" width="20" height="20" relative="1" as="geometry">
            <mxPoint x="-27" y="7" as="offset" />
          </mxGeometry>
        </mxCell>
        <mxCell id="wBnylKK0hW2aTVee2iu0-26" value="&lt;font style=&quot;font-size: 12px;&quot;&gt;«Module»&lt;/font&gt;&lt;br style=&quot;font-size: 14px;&quot;&gt;&lt;b&gt;网表分割&lt;/b&gt;" style="html=1;dropTarget=0;fontSize=14;fillColor=#E6D0DE;strokeColor=#36393d;gradientColor=#FFFFFF;gradientDirection=east;" vertex="1" parent="wBnylKK0hW2aTVee2iu0-17">
          <mxGeometry x="150" y="50" width="110" height="50" as="geometry" />
        </mxCell>
        <mxCell id="wBnylKK0hW2aTVee2iu0-27" value="" style="shape=module;jettyWidth=8;jettyHeight=4;fontSize=14;fillColor=#E6D0DE;strokeColor=#36393d;gradientColor=#FFFFFF;gradientDirection=east;" vertex="1" parent="wBnylKK0hW2aTVee2iu0-26">
          <mxGeometry x="1" width="20" height="20" relative="1" as="geometry">
            <mxPoint x="-27" y="7" as="offset" />
          </mxGeometry>
        </mxCell>
        <mxCell id="wBnylKK0hW2aTVee2iu0-28" value="&amp;lt;&amp;lt;Usage&amp;gt;&amp;gt;" style="rounded=1;orthogonalLoop=1;jettySize=auto;html=1;dashed=1;fontSize=12;endArrow=open;endFill=0;elbow=vertical;" edge="1" parent="1" source="wBnylKK0hW2aTVee2iu0-2" target="wBnylKK0hW2aTVee2iu0-3">
          <mxGeometry relative="1" as="geometry">
            <mxPoint x="440" y="835" as="sourcePoint" />
            <mxPoint x="609.4694533762058" y="1526" as="targetPoint" />
          </mxGeometry>
        </mxCell>
        <mxCell id="wBnylKK0hW2aTVee2iu0-29" value="&amp;lt;&amp;lt;Usage&amp;gt;&amp;gt;" style="rounded=1;orthogonalLoop=1;jettySize=auto;html=1;dashed=1;fontSize=12;endArrow=open;endFill=0;elbow=vertical;" edge="1" parent="1" source="wBnylKK0hW2aTVee2iu0-2" target="wBnylKK0hW2aTVee2iu0-48">
          <mxGeometry relative="1" as="geometry">
            <mxPoint x="840" y="365" as="sourcePoint" />
            <mxPoint x="570.05" y="519.35" as="targetPoint" />
          </mxGeometry>
        </mxCell>
        <mxCell id="wBnylKK0hW2aTVee2iu0-30" value="&amp;lt;&amp;lt;Usage&amp;gt;&amp;gt;" style="rounded=1;orthogonalLoop=1;jettySize=auto;html=1;dashed=1;fontSize=12;endArrow=open;endFill=0;elbow=vertical;" edge="1" parent="1" source="wBnylKK0hW2aTVee2iu0-42" target="wBnylKK0hW2aTVee2iu0-15">
          <mxGeometry relative="1" as="geometry">
            <mxPoint x="830" y="335" as="sourcePoint" />
            <mxPoint x="1065" y="520" as="targetPoint" />
          </mxGeometry>
        </mxCell>
        <mxCell id="wBnylKK0hW2aTVee2iu0-31" value="&amp;lt;&amp;lt;Usage&amp;gt;&amp;gt;" style="rounded=1;orthogonalLoop=1;jettySize=auto;html=1;dashed=1;fontSize=12;endArrow=open;endFill=0;elbow=vertical;" edge="1" parent="1" source="wBnylKK0hW2aTVee2iu0-2" target="wBnylKK0hW2aTVee2iu0-45">
          <mxGeometry relative="1" as="geometry">
            <mxPoint x="840" y="345" as="sourcePoint" />
            <mxPoint x="995" y="520" as="targetPoint" />
          </mxGeometry>
        </mxCell>
        <mxCell id="wBnylKK0hW2aTVee2iu0-32" value="&amp;lt;&amp;lt;Realization&amp;gt;&amp;gt;" style="endArrow=block;dashed=1;endFill=0;endSize=12;html=1;rounded=1;fontSize=12;strokeColor=#0000FF;fontColor=#0000FF;" edge="1" parent="1" source="wBnylKK0hW2aTVee2iu0-5" target="wBnylKK0hW2aTVee2iu0-33">
          <mxGeometry width="160" relative="1" as="geometry">
            <mxPoint x="1675" y="555" as="sourcePoint" />
            <mxPoint x="1260" y="735" as="targetPoint" />
          </mxGeometry>
        </mxCell>
        <mxCell id="wBnylKK0hW2aTVee2iu0-33" value="&lt;font style=&quot;font-size: 12px;&quot;&gt;«Interface»&lt;/font&gt;&lt;br style=&quot;font-size: 14px;&quot;&gt;&lt;b&gt;网表&lt;/b&gt;" style="html=1;dropTarget=0;fontSize=14;fillColor=#FFCCFF;strokeColor=#36393d;gradientColor=#FFFFFF;gradientDirection=east;" vertex="1" parent="1">
          <mxGeometry x="620" y="855" width="110" height="50" as="geometry" />
        </mxCell>
        <mxCell id="wBnylKK0hW2aTVee2iu0-34" value="" style="shape=module;jettyWidth=8;jettyHeight=4;fontSize=14;fillColor=#ffcccc;strokeColor=#36393d;gradientColor=#FFFFFF;gradientDirection=east;" vertex="1" parent="wBnylKK0hW2aTVee2iu0-33">
          <mxGeometry x="1" width="20" height="20" relative="1" as="geometry">
            <mxPoint x="-27" y="7" as="offset" />
          </mxGeometry>
        </mxCell>
        <mxCell id="wBnylKK0hW2aTVee2iu0-35" value="&amp;lt;&amp;lt;Usage&amp;gt;&amp;gt;" style="rounded=1;orthogonalLoop=1;jettySize=auto;html=1;dashed=1;fontSize=12;endArrow=open;endFill=0;elbow=vertical;" edge="1" parent="1" source="wBnylKK0hW2aTVee2iu0-5" target="wBnylKK0hW2aTVee2iu0-3">
          <mxGeometry relative="1" as="geometry">
            <mxPoint x="792.5" y="385" as="sourcePoint" />
            <mxPoint x="575" y="520" as="targetPoint" />
          </mxGeometry>
        </mxCell>
        <mxCell id="wBnylKK0hW2aTVee2iu0-36" value="&amp;lt;&amp;lt;Usage&amp;gt;&amp;gt;" style="rounded=1;orthogonalLoop=1;jettySize=auto;html=1;dashed=1;fontSize=12;endArrow=open;endFill=0;elbow=vertical;" edge="1" parent="1" source="wBnylKK0hW2aTVee2iu0-18" target="wBnylKK0hW2aTVee2iu0-33">
          <mxGeometry relative="1" as="geometry">
            <mxPoint x="792.5" y="385" as="sourcePoint" />
            <mxPoint x="575.0000000000005" y="520" as="targetPoint" />
          </mxGeometry>
        </mxCell>
        <mxCell id="wBnylKK0hW2aTVee2iu0-37" value="&amp;lt;&amp;lt;Realization&amp;gt;&amp;gt;" style="endArrow=block;dashed=1;endFill=0;endSize=12;html=1;rounded=1;fontSize=12;strokeColor=#0000FF;fontColor=#0000FF;" edge="1" parent="1" source="wBnylKK0hW2aTVee2iu0-18" target="wBnylKK0hW2aTVee2iu0-15">
          <mxGeometry width="160" relative="1" as="geometry">
            <mxPoint x="642.7777777777778" y="685" as="sourcePoint" />
            <mxPoint x="693.8888888888887" y="570" as="targetPoint" />
          </mxGeometry>
        </mxCell>
        <mxCell id="wBnylKK0hW2aTVee2iu0-38" value="&amp;lt;&amp;lt;Realization&amp;gt;&amp;gt;" style="endArrow=block;dashed=1;endFill=0;endSize=12;html=1;rounded=1;fontSize=12;strokeColor=#0000FF;fontColor=#0000FF;" edge="1" parent="1" source="wBnylKK0hW2aTVee2iu0-18" target="wBnylKK0hW2aTVee2iu0-7">
          <mxGeometry width="160" relative="1" as="geometry">
            <mxPoint x="853.333333333333" y="655" as="sourcePoint" />
            <mxPoint x="839.1666666666665" y="570" as="targetPoint" />
          </mxGeometry>
        </mxCell>
        <mxCell id="wBnylKK0hW2aTVee2iu0-39" value="&amp;lt;&amp;lt;Realization&amp;gt;&amp;gt;" style="endArrow=block;dashed=1;endFill=0;endSize=12;html=1;rounded=1;fontSize=12;strokeColor=#0000FF;fontColor=#0000FF;" edge="1" parent="1" source="wBnylKK0hW2aTVee2iu0-11" target="wBnylKK0hW2aTVee2iu0-13">
          <mxGeometry width="160" relative="1" as="geometry">
            <mxPoint x="934.5256410256409" y="655" as="sourcePoint" />
            <mxPoint x="961.551282051282" y="570" as="targetPoint" />
          </mxGeometry>
        </mxCell>
        <mxCell id="wBnylKK0hW2aTVee2iu0-40" value="&amp;lt;&amp;lt;Usage&amp;gt;&amp;gt;" style="rounded=1;orthogonalLoop=1;jettySize=auto;html=1;dashed=1;fontSize=12;endArrow=open;endFill=0;elbow=vertical;" edge="1" parent="1" source="wBnylKK0hW2aTVee2iu0-11" target="wBnylKK0hW2aTVee2iu0-9">
          <mxGeometry relative="1" as="geometry">
            <mxPoint x="819.2307692307693" y="655" as="sourcePoint" />
            <mxPoint x="730.9615384615386" y="570" as="targetPoint" />
          </mxGeometry>
        </mxCell>
        <mxCell id="wBnylKK0hW2aTVee2iu0-41" value="&amp;lt;&amp;lt;Usage&amp;gt;&amp;gt;" style="rounded=1;orthogonalLoop=1;jettySize=auto;html=1;dashed=1;fontSize=12;endArrow=open;endFill=0;elbow=vertical;" edge="1" parent="1" source="wBnylKK0hW2aTVee2iu0-11" target="wBnylKK0hW2aTVee2iu0-7">
          <mxGeometry relative="1" as="geometry">
            <mxPoint x="1166.6091954022988" y="679" as="sourcePoint" />
            <mxPoint x="1116.4942528735633" y="570" as="targetPoint" />
          </mxGeometry>
        </mxCell>
        <mxCell id="wBnylKK0hW2aTVee2iu0-42" value="&lt;font style=&quot;font-size: 12px;&quot;&gt;«ExternalSystem»&lt;/font&gt;&lt;br style=&quot;font-size: 14px;&quot;&gt;&lt;b&gt;EMU仿真引擎&lt;/b&gt;" style="html=1;dropTarget=0;fontSize=14;fillColor=#f5f5f5;strokeColor=#666666;gradientColor=#CCCCCC;gradientDirection=east;" vertex="1" parent="1">
          <mxGeometry x="930" y="960" width="150" height="80" as="geometry" />
        </mxCell>
        <mxCell id="wBnylKK0hW2aTVee2iu0-43" value="" style="shape=module;jettyWidth=8;jettyHeight=4;fontSize=14;fillColor=#ffcccc;strokeColor=#36393d;gradientColor=#FFFFFF;gradientDirection=east;" vertex="1" parent="wBnylKK0hW2aTVee2iu0-42">
          <mxGeometry x="1" width="20" height="20" relative="1" as="geometry">
            <mxPoint x="-27" y="7" as="offset" />
          </mxGeometry>
        </mxCell>
        <mxCell id="wBnylKK0hW2aTVee2iu0-44" value="&amp;lt;&amp;lt;Realization&amp;gt;&amp;gt;" style="endArrow=block;dashed=1;endFill=0;endSize=12;html=1;rounded=1;fontSize=12;strokeColor=#0000FF;fontColor=#0000FF;" edge="1" parent="1" source="wBnylKK0hW2aTVee2iu0-42" target="wBnylKK0hW2aTVee2iu0-9">
          <mxGeometry width="160" relative="1" as="geometry">
            <mxPoint x="1198.793103448276" y="679" as="sourcePoint" />
            <mxPoint x="1236.3793103448277" y="570" as="targetPoint" />
          </mxGeometry>
        </mxCell>
        <mxCell id="wBnylKK0hW2aTVee2iu0-45" value="&lt;font style=&quot;font-size: 12px;&quot;&gt;«ExternalSystem»&lt;/font&gt;&lt;br style=&quot;font-size: 14px;&quot;&gt;&lt;b&gt;波形查看工具&lt;/b&gt;" style="html=1;dropTarget=0;fontSize=14;fillColor=#f5f5f5;strokeColor=#666666;gradientColor=#CCCCCC;gradientDirection=east;" vertex="1" parent="1">
          <mxGeometry x="1090" y="350" width="150" height="80" as="geometry" />
        </mxCell>
        <mxCell id="wBnylKK0hW2aTVee2iu0-46" value="" style="shape=module;jettyWidth=8;jettyHeight=4;fontSize=14;fillColor=#ffcccc;strokeColor=#36393d;gradientColor=#FFFFFF;gradientDirection=east;" vertex="1" parent="wBnylKK0hW2aTVee2iu0-45">
          <mxGeometry x="1" width="20" height="20" relative="1" as="geometry">
            <mxPoint x="-27" y="7" as="offset" />
          </mxGeometry>
        </mxCell>
        <mxCell id="wBnylKK0hW2aTVee2iu0-47" value="&amp;lt;&amp;lt;Usage&amp;gt;&amp;gt;" style="rounded=1;orthogonalLoop=1;jettySize=auto;html=1;dashed=1;fontSize=12;endArrow=open;endFill=0;elbow=vertical;" edge="1" parent="1" source="wBnylKK0hW2aTVee2iu0-45" target="wBnylKK0hW2aTVee2iu0-13">
          <mxGeometry relative="1" as="geometry">
            <mxPoint x="810" y="379.7222222222222" as="sourcePoint" />
            <mxPoint x="1180" y="523.6111111111111" as="targetPoint" />
          </mxGeometry>
        </mxCell>
        <mxCell id="wBnylKK0hW2aTVee2iu0-48" value="&lt;font style=&quot;font-size: 12px;&quot;&gt;«Interface»&lt;/font&gt;&lt;br style=&quot;font-size: 14px;&quot;&gt;&lt;b&gt;编译选项&lt;/b&gt;" style="html=1;dropTarget=0;fontSize=14;fillColor=#FFCCFF;strokeColor=#36393d;gradientColor=#FFFFFF;gradientDirection=east;" vertex="1" parent="1">
          <mxGeometry x="865" y="510" width="110" height="50" as="geometry" />
        </mxCell>
        <mxCell id="wBnylKK0hW2aTVee2iu0-49" value="" style="shape=module;jettyWidth=8;jettyHeight=4;fontSize=14;fillColor=#ffcccc;strokeColor=#36393d;gradientColor=#FFFFFF;gradientDirection=east;" vertex="1" parent="wBnylKK0hW2aTVee2iu0-48">
          <mxGeometry x="1" width="20" height="20" relative="1" as="geometry">
            <mxPoint x="-27" y="7" as="offset" />
          </mxGeometry>
        </mxCell>
        <mxCell id="wBnylKK0hW2aTVee2iu0-50" value="&amp;lt;&amp;lt;Realization&amp;gt;&amp;gt;" style="endArrow=block;dashed=1;endFill=0;endSize=12;html=1;rounded=1;fontSize=12;strokeColor=#0000FF;fontColor=#0000FF;" edge="1" parent="1" source="wBnylKK0hW2aTVee2iu0-18" target="wBnylKK0hW2aTVee2iu0-48">
          <mxGeometry width="160" relative="1" as="geometry">
            <mxPoint x="989.7844827586207" y="634" as="sourcePoint" />
            <mxPoint x="1036.6810344827586" y="570" as="targetPoint" />
          </mxGeometry>
        </mxCell>
        <mxCell id="wBnylKK0hW2aTVee2iu0-51" value="&lt;span style=&quot;&quot;&gt;«Boundary»&lt;/span&gt;&lt;br style=&quot;&quot;&gt;&lt;b&gt;&lt;font style=&quot;font-size: 14px;&quot;&gt;EmuCompiler&lt;/font&gt;&lt;/b&gt;" style="rounded=1;whiteSpace=wrap;html=1;verticalAlign=bottom;arcSize=9;fillColor=#f9f7ed;strokeColor=#36393d;" vertex="1" parent="1">
          <mxGeometry x="680" y="1250" width="440" height="490" as="geometry" />
        </mxCell>
        <mxCell id="wBnylKK0hW2aTVee2iu0-52" value="&lt;b&gt;逻辑验证&lt;/b&gt;" style="shape=umlActor;verticalLabelPosition=bottom;verticalAlign=top;html=1;fontSize=14;fontColor=#000000;fillColor=#E6D0DE;gradientColor=#FFFFFF;gradientDirection=east;strokeWidth=2;" vertex="1" parent="1">
          <mxGeometry x="550" y="1440" width="40" height="70" as="geometry" />
        </mxCell>
        <mxCell id="wBnylKK0hW2aTVee2iu0-53" value="&lt;font style=&quot;font-size: 12px;&quot;&gt;&amp;lt;&amp;lt;Use Case&amp;gt;&amp;gt;&lt;/font&gt;&lt;br&gt;&lt;b&gt;综合RTL代码&lt;/b&gt;" style="ellipse;whiteSpace=wrap;html=1;strokeWidth=1;fontSize=14;fontColor=#000000;fillColor=#A9C4EB;gradientColor=#FFFFFF;gradientDirection=east;" vertex="1" parent="1">
          <mxGeometry x="730" y="1280" width="140" height="70" as="geometry" />
        </mxCell>
        <mxCell id="wBnylKK0hW2aTVee2iu0-54" value="&lt;font style=&quot;font-size: 12px;&quot;&gt;&amp;lt;&amp;lt;Use Case&amp;gt;&amp;gt;&lt;/font&gt;&lt;br&gt;&lt;b&gt;编译逻辑网表&lt;/b&gt;" style="ellipse;whiteSpace=wrap;html=1;strokeWidth=1;fontSize=14;fontColor=#000000;fillColor=#A9C4EB;gradientColor=#FFFFFF;gradientDirection=east;" vertex="1" parent="1">
          <mxGeometry x="730" y="1410" width="140" height="70" as="geometry" />
        </mxCell>
        <mxCell id="wBnylKK0hW2aTVee2iu0-55" value="&lt;font style=&quot;font-size: 12px;&quot;&gt;&amp;lt;&amp;lt;Use Case&amp;gt;&amp;gt;&lt;/font&gt;&lt;br&gt;&lt;b&gt;解析编译选项&lt;/b&gt;" style="ellipse;whiteSpace=wrap;html=1;strokeWidth=1;fontSize=14;fontColor=#000000;fillColor=#A9C4EB;gradientColor=#FFFFFF;gradientDirection=east;" vertex="1" parent="1">
          <mxGeometry x="940" y="1445" width="140" height="70" as="geometry" />
        </mxCell>
        <mxCell id="wBnylKK0hW2aTVee2iu0-56" value="&amp;lt;&amp;lt;include&amp;gt;&amp;gt;" style="endArrow=open;startArrow=none;endFill=0;startFill=0;endSize=8;html=1;verticalAlign=bottom;dashed=1;labelBackgroundColor=none;rounded=0;" edge="1" parent="1" source="wBnylKK0hW2aTVee2iu0-54" target="wBnylKK0hW2aTVee2iu0-55">
          <mxGeometry width="160" relative="1" as="geometry">
            <mxPoint x="970.0012967270072" y="1503.0391493603674" as="sourcePoint" />
            <mxPoint x="1029.8796807198842" y="1479.9960667546384" as="targetPoint" />
          </mxGeometry>
        </mxCell>
        <mxCell id="wBnylKK0hW2aTVee2iu0-57" value="&lt;font style=&quot;font-size: 12px;&quot;&gt;&amp;lt;&amp;lt;Use Case&amp;gt;&amp;gt;&lt;/font&gt;&lt;br&gt;&lt;b&gt;解析逻辑网表&lt;/b&gt;" style="ellipse;whiteSpace=wrap;html=1;strokeWidth=1;fontSize=14;fontColor=#000000;fillColor=#A9C4EB;gradientColor=#FFFFFF;gradientDirection=east;" vertex="1" parent="1">
          <mxGeometry x="940" y="1360" width="140" height="70" as="geometry" />
        </mxCell>
        <mxCell id="wBnylKK0hW2aTVee2iu0-58" value="&amp;lt;&amp;lt;include&amp;gt;&amp;gt;" style="endArrow=open;startArrow=none;endFill=0;startFill=0;endSize=8;html=1;verticalAlign=bottom;dashed=1;labelBackgroundColor=none;rounded=0;" edge="1" parent="1" source="wBnylKK0hW2aTVee2iu0-54" target="wBnylKK0hW2aTVee2iu0-57">
          <mxGeometry width="160" relative="1" as="geometry">
            <mxPoint x="957.7848635149871" y="1476.2648371759033" as="sourcePoint" />
            <mxPoint x="1052.266790932221" y="1463.8347664001449" as="targetPoint" />
          </mxGeometry>
        </mxCell>
        <mxCell id="wBnylKK0hW2aTVee2iu0-59" value="&lt;font style=&quot;font-size: 12px;&quot;&gt;&amp;lt;&amp;lt;Use Case&amp;gt;&amp;gt;&lt;/font&gt;&lt;br&gt;&lt;b&gt;恢复波形文件&lt;/b&gt;" style="ellipse;whiteSpace=wrap;html=1;strokeWidth=1;fontSize=14;fontColor=#000000;fillColor=#A9C4EB;gradientColor=#FFFFFF;gradientDirection=east;" vertex="1" parent="1">
          <mxGeometry x="730" y="1570" width="140" height="70" as="geometry" />
        </mxCell>
        <mxCell id="wBnylKK0hW2aTVee2iu0-60" value="&lt;font style=&quot;font-size: 12px;&quot;&gt;&amp;lt;&amp;lt;Use Case&amp;gt;&amp;gt;&lt;/font&gt;&lt;br&gt;&lt;b&gt;解析信号映射表&lt;/b&gt;" style="ellipse;whiteSpace=wrap;html=1;strokeWidth=1;fontSize=14;fontColor=#000000;fillColor=#A9C4EB;gradientColor=#FFFFFF;gradientDirection=east;" vertex="1" parent="1">
          <mxGeometry x="940" y="1530" width="140" height="70" as="geometry" />
        </mxCell>
        <mxCell id="wBnylKK0hW2aTVee2iu0-61" value="&lt;font style=&quot;font-size: 12px;&quot;&gt;&amp;lt;&amp;lt;Use Case&amp;gt;&amp;gt;&lt;/font&gt;&lt;br&gt;&lt;b&gt;解析波形数据&lt;/b&gt;" style="ellipse;whiteSpace=wrap;html=1;strokeWidth=1;fontSize=14;fontColor=#000000;fillColor=#A9C4EB;gradientColor=#FFFFFF;gradientDirection=east;" vertex="1" parent="1">
          <mxGeometry x="940" y="1620" width="140" height="70" as="geometry" />
        </mxCell>
        <mxCell id="wBnylKK0hW2aTVee2iu0-62" value="&amp;lt;&amp;lt;include&amp;gt;&amp;gt;" style="endArrow=open;startArrow=none;endFill=0;startFill=0;endSize=8;html=1;verticalAlign=bottom;dashed=1;labelBackgroundColor=none;rounded=0;" edge="1" parent="1" source="wBnylKK0hW2aTVee2iu0-59" target="wBnylKK0hW2aTVee2iu0-60">
          <mxGeometry width="160" relative="1" as="geometry">
            <mxPoint x="875.4021561574407" y="1447.4755557988178" as="sourcePoint" />
            <mxPoint x="954.5858585549722" y="1462.54016353428" as="targetPoint" />
          </mxGeometry>
        </mxCell>
        <mxCell id="wBnylKK0hW2aTVee2iu0-63" value="&amp;lt;&amp;lt;include&amp;gt;&amp;gt;" style="endArrow=open;startArrow=none;endFill=0;startFill=0;endSize=8;html=1;verticalAlign=bottom;dashed=1;labelBackgroundColor=none;rounded=0;" edge="1" parent="1" source="wBnylKK0hW2aTVee2iu0-59" target="wBnylKK0hW2aTVee2iu0-61">
          <mxGeometry width="160" relative="1" as="geometry">
            <mxPoint x="875.4021561574407" y="1602.5244442011817" as="sourcePoint" />
            <mxPoint x="954.5858585549722" y="1587.4598364657195" as="targetPoint" />
          </mxGeometry>
        </mxCell>
        <mxCell id="wBnylKK0hW2aTVee2iu0-64" value="" style="rounded=0;orthogonalLoop=1;jettySize=auto;html=1;endArrow=none;endFill=0;" edge="1" parent="1" source="wBnylKK0hW2aTVee2iu0-52" target="wBnylKK0hW2aTVee2iu0-53">
          <mxGeometry relative="1" as="geometry">
            <mxPoint x="629" y="778.744075829384" as="sourcePoint" />
            <mxPoint x="825" y="1089" as="targetPoint" />
          </mxGeometry>
        </mxCell>
        <mxCell id="wBnylKK0hW2aTVee2iu0-65" value="" style="rounded=0;orthogonalLoop=1;jettySize=auto;html=1;endArrow=none;endFill=0;" edge="1" parent="1" source="wBnylKK0hW2aTVee2iu0-52" target="wBnylKK0hW2aTVee2iu0-54">
          <mxGeometry relative="1" as="geometry">
            <mxPoint x="570" y="1424.6025098409998" as="sourcePoint" />
            <mxPoint x="755.9746929539192" y="1347.255708248543" as="targetPoint" />
          </mxGeometry>
        </mxCell>
        <mxCell id="wBnylKK0hW2aTVee2iu0-66" value="" style="rounded=0;orthogonalLoop=1;jettySize=auto;html=1;endArrow=none;endFill=0;" edge="1" parent="1" source="wBnylKK0hW2aTVee2iu0-52" target="wBnylKK0hW2aTVee2iu0-59">
          <mxGeometry relative="1" as="geometry">
            <mxPoint x="570" y="1433.1132075471698" as="sourcePoint" />
            <mxPoint x="740.7840639319365" y="1420.223844231552" as="targetPoint" />
          </mxGeometry>
        </mxCell>
        <mxCell id="wBnylKK0hW2aTVee2iu0-67" value="&lt;font style=&quot;font-size: 12px;&quot;&gt;«Interface»&lt;/font&gt;&lt;br style=&quot;font-size: 14px;&quot;&gt;&lt;b&gt;顶层IO&lt;/b&gt;" style="html=1;dropTarget=0;fontSize=14;fillColor=#FFCCFF;strokeColor=#36393d;gradientColor=#FFFFFF;gradientDirection=east;" vertex="1" parent="1">
          <mxGeometry x="862.5" y="855" width="110" height="50" as="geometry" />
        </mxCell>
        <mxCell id="wBnylKK0hW2aTVee2iu0-68" value="" style="shape=module;jettyWidth=8;jettyHeight=4;fontSize=14;fillColor=#ffcccc;strokeColor=#36393d;gradientColor=#FFFFFF;gradientDirection=east;" vertex="1" parent="wBnylKK0hW2aTVee2iu0-67">
          <mxGeometry x="1" width="20" height="20" relative="1" as="geometry">
            <mxPoint x="-27" y="7" as="offset" />
          </mxGeometry>
        </mxCell>
        <mxCell id="wBnylKK0hW2aTVee2iu0-69" value="&amp;lt;&amp;lt;Realization&amp;gt;&amp;gt;" style="endArrow=block;dashed=1;endFill=0;endSize=12;html=1;rounded=1;fontSize=12;strokeColor=#0000FF;fontColor=#0000FF;" edge="1" parent="1" source="wBnylKK0hW2aTVee2iu0-18" target="wBnylKK0hW2aTVee2iu0-67">
          <mxGeometry width="160" relative="1" as="geometry">
            <mxPoint x="990.8771929824561" y="804" as="sourcePoint" />
            <mxPoint x="1036.3596491228068" y="865" as="targetPoint" />
          </mxGeometry>
        </mxCell>
        <mxCell id="wBnylKK0hW2aTVee2iu0-70" value="&amp;lt;&amp;lt;Usage&amp;gt;&amp;gt;" style="rounded=1;orthogonalLoop=1;jettySize=auto;html=1;dashed=1;fontSize=12;endArrow=open;endFill=0;elbow=vertical;" edge="1" parent="1" source="wBnylKK0hW2aTVee2iu0-42" target="wBnylKK0hW2aTVee2iu0-67">
          <mxGeometry relative="1" as="geometry">
            <mxPoint x="1065" y="1006.4179104477612" as="sourcePoint" />
            <mxPoint x="860" y="914.6268656716418" as="targetPoint" />
          </mxGeometry>
        </mxCell>
      </root>
    </mxGraphModel>
  </diagram>
</mxfile>
